<svg width="20" height="20" viewBox="0 0 20 20" fill="none" xmlns="http://www.w3.org/2000/svg">
<path fill-rule="evenodd" clip-rule="evenodd" d="M10.001 16.5894C6.16847 14.4065 4.03092 12.2369 2.99728 10.3545C1.93936 8.42785 2.03166 6.80512 2.61871 5.65342C3.82535 3.28614 7.25668 2.52916 9.34732 5.17331L10.001 6.00002L10.6547 5.17335C12.7457 2.52909 16.1772 3.2862 17.3838 5.65342C17.9708 6.80511 18.0631 8.42782 17.0051 10.3545C15.9714 12.2369 13.8337 14.4065 10.001 16.5894ZM10.001 3.42157C7.06004 0.626898 2.72139 1.78193 1.13381 4.89654C0.262528 6.60588 0.250626 8.81515 1.53637 11.1567C2.8107 13.4775 5.35145 15.9271 9.59789 18.2742L10.001 18.497L10.4041 18.2742C14.6507 15.9271 17.1916 13.4775 18.466 11.1567C19.7518 8.81518 19.74 6.6059 18.8687 4.89654C17.2811 1.78187 12.9423 0.62694 10.001 3.42157Z" fill="#424551"/>
</svg>
